<svg xmlns="http://www.w3.org/2000/svg" version="1.1" xmlns:xlink="http://www.w3.org/1999/xlink" xmlns:svgjs="http://svgjs.dev/svgjs" width="1500" height="1500" viewBox="0 0 1500 1500"><rect width="1500" height="1500" fill="#ffffff"></rect><g transform="matrix(0.6666666666666666,0,0,0.6666666666666666,249.39393939393938,621.165106973242)"><svg viewBox="0 0 396 102" data-background-color="#ffffff" preserveAspectRatio="xMidYMid meet" height="386" width="1500" xmlns="http://www.w3.org/2000/svg" xmlns:xlink="http://www.w3.org/1999/xlink"><g id="tight-bounds" transform="matrix(1,0,0,1,0.2400000000000091,0.06668039661650482)"><svg viewBox="0 0 395.52 101.86663920676696" height="101.86663920676696" width="395.52"><g><svg viewBox="0 0 593.3556165574687 152.8194339430836" height="101.86663920676696" width="395.52"><g><rect width="7.834566850535192" height="152.8194339430836" x="169.49171240186763" y="0" fill="#24005d" opacity="1" stroke-width="0" stroke="transparent" fill-opacity="1" class="rect-qz-0" data-fill-palette-color="primary" rx="1%" id="qz-0" data-palette-color="#24005d"></rect></g><g transform="matrix(1,0,0,1,197.83561655746877,0.3801478456295513)"><svg viewBox="0 0 395.52 152.0591382518245" height="152.0591382518245" width="395.52"><g id="textblocktransform"><svg viewBox="0 0 395.52 152.0591382518245" height="152.0591382518245" width="395.52" id="textblock"><g><svg viewBox="0 0 395.52 86.87599461641992" height="86.87599461641992" width="395.52"><g transform="matrix(1,0,0,1,0,0)"><svg width="395.52" viewBox="2.65 -40 185.73 40.8" height="86.87599461641992" data-palette-color="#24005d"><g class="wordmark-text-0" data-fill-palette-color="primary" id="text-0"><path d="M17.45-18.3Q20.7-17.6 22.63-15.65 24.55-13.7 24.55-10L24.55-10Q24.55-4.9 21.13-2.45 17.7 0 11.8 0L11.8 0 2.65 0 2.65-34.6 10.65-34.6Q16.7-34.6 20.03-32.35 23.35-30.1 23.35-25.75L23.35-25.75Q23.35-22.85 21.73-20.95 20.1-19.05 17.45-18.3L17.45-18.3ZM11.3-29.5L9.75-29.5 9.75-20.5 11.55-20.5Q14-20.5 15.1-21.68 16.2-22.85 16.2-25.1L16.2-25.1Q16.2-27.35 15.03-28.43 13.85-29.5 11.3-29.5L11.3-29.5ZM11.85-5.25Q14.55-5.25 15.93-6.43 17.3-7.6 17.3-10.3L17.3-10.3Q17.3-13.05 16.03-14.35 14.75-15.65 12-15.65L12-15.65 9.75-15.65 9.75-5.25 11.85-5.25ZM28.05-26.5L34.85-26.5 34.85 0 28.05 0 28.05-26.5ZM31.45-40Q33.2-40 34.3-38.85 35.4-37.7 35.4-35.95L35.4-35.95Q35.4-34.25 34.3-33.13 33.2-32 31.45-32L31.45-32Q29.65-32 28.55-33.13 27.45-34.25 27.45-35.95L27.45-35.95Q27.45-37.7 28.55-38.85 29.65-40 31.45-40L31.45-40ZM51.59-5.4L53.89-1.2Q52.65-0.2 51.07 0.3 49.5 0.8 47.9 0.8L47.9 0.8Q44.25 0.8 42.4-1.28 40.55-3.35 40.55-6.9L40.55-6.9 40.55-21.65 37.59-21.65 37.59-26.5 40.55-26.5 40.55-32.3 47.34-33.15 47.34-26.5 52.3-26.5 51.65-21.65 47.34-21.65 47.34-6.95Q47.34-4.65 49.25-4.65L49.25-4.65Q49.9-4.65 50.4-4.83 50.9-5 51.59-5.4L51.59-5.4ZM65.39-35.4Q68.49-35.4 70.89-34.3 73.29-33.2 75.24-31.05L75.24-31.05 72.04-27.35Q69.14-30.1 66.04-30.1L66.04-30.1Q64.24-30.1 63.19-29.03 62.14-27.95 62.14-26.15L62.14-26.15Q62.14-24.4 63.29-23.25 64.44-22.1 67.64-20.8L67.64-20.8Q70.54-19.6 72.32-18.25 74.09-16.9 75.07-14.9 76.04-12.9 76.04-9.95L76.04-9.95Q76.04-6.9 74.64-4.45 73.24-2 70.64-0.6 68.04 0.8 64.59 0.8L64.59 0.8Q61.04 0.8 58.42-0.48 55.79-1.75 53.69-4L53.69-4 57.14-7.8Q58.89-6.2 60.57-5.38 62.24-4.55 64.14-4.55L64.14-4.55Q66.34-4.55 67.52-5.88 68.69-7.2 68.69-9.45L68.69-9.45Q68.69-11.5 67.59-12.78 66.49-14.05 63.59-15.25L63.59-15.25Q58.89-17.2 56.89-19.6 54.89-22 54.89-25.65L54.89-25.65Q54.89-28.5 56.24-30.7 57.59-32.9 59.99-34.15 62.39-35.4 65.39-35.4L65.39-35.4ZM91.19-5.4L93.49-1.2Q92.24-0.2 90.67 0.3 89.09 0.8 87.49 0.8L87.49 0.8Q83.84 0.8 81.99-1.28 80.14-3.35 80.14-6.9L80.14-6.9 80.14-21.65 77.19-21.65 77.19-26.5 80.14-26.5 80.14-32.3 86.94-33.15 86.94-26.5 91.89-26.5 91.24-21.65 86.94-21.65 86.94-6.95Q86.94-4.65 88.84-4.65L88.84-4.65Q89.49-4.65 89.99-4.83 90.49-5 91.19-5.4L91.19-5.4ZM107.89-27.2Q109.04-27.2 109.94-26.85L109.94-26.85 108.84-20.3Q107.94-20.6 106.99-20.6L106.99-20.6Q105.09-20.6 104.04-19.03 102.99-17.45 102.44-14.35L102.44-14.35 102.44 0 95.64 0 95.64-26.5 101.59-26.5 102.09-22Q103.94-27.2 107.89-27.2L107.89-27.2ZM131.84-13.85Q131.84-13.3 131.69-11.2L131.69-11.2 118.14-11.2Q118.34-7.3 119.51-5.8 120.69-4.3 122.79-4.3L122.79-4.3Q124.24-4.3 125.49-4.83 126.74-5.35 128.19-6.45L128.19-6.45 130.99-2.7Q127.39 0.8 122.34 0.8L122.34 0.8Q116.99 0.8 114.14-2.85 111.29-6.5 111.29-13.05L111.29-13.05Q111.29-19.6 113.99-23.45 116.69-27.3 121.74-27.3L121.74-27.3Q126.49-27.3 129.16-23.88 131.84-20.45 131.84-13.85L131.84-13.85ZM125.24-15.4L125.24-15.8Q125.24-19.4 124.44-21.03 123.64-22.65 121.79-22.65L121.79-22.65Q120.09-22.65 119.21-21.05 118.34-19.45 118.14-15.4L118.14-15.4 125.24-15.4ZM153.18-6.7Q153.18-5.4 153.51-4.8 153.83-4.2 154.63-3.8L154.63-3.8 153.23 0.7Q151.13 0.45 149.83-0.38 148.53-1.2 147.88-2.95L147.88-2.95Q145.58 0.8 141.38 0.8L141.38 0.8Q138.08 0.8 136.13-1.45 134.18-3.7 134.18-7.4L134.18-7.4Q134.18-11.75 136.86-14.03 139.53-16.3 144.68-16.3L144.68-16.3 146.53-16.3 146.53-17.9Q146.53-20.35 145.73-21.33 144.93-22.3 142.98-22.3L142.98-22.3Q140.73-22.3 137.23-21L137.23-21 135.68-25.35Q137.73-26.3 139.98-26.8 142.23-27.3 144.23-27.3L144.23-27.3Q153.18-27.3 153.18-18.25L153.18-18.25 153.18-6.7ZM143.33-4.1Q145.43-4.1 146.53-7L146.53-7 146.53-12.35 145.33-12.35Q143.03-12.35 141.96-11.28 140.88-10.2 140.88-7.95L140.88-7.95Q140.88-6.05 141.53-5.08 142.18-4.1 143.33-4.1L143.33-4.1ZM182.58-27.3Q185.18-27.3 186.78-25.23 188.38-23.15 188.38-19.75L188.38-19.75 188.38 0 181.73 0 181.73-19.05Q181.73-20.7 181.31-21.4 180.88-22.1 180.08-22.1L180.08-22.1Q178.33-22.1 176.73-18.8L176.73-18.8 176.73 0 170.13 0 170.13-19.05Q170.13-22.1 168.43-22.1L168.43-22.1Q166.63-22.1 165.03-18.8L165.03-18.8 165.03 0 158.38 0 158.38-26.5 164.33-26.5 164.73-23.15Q165.98-25.15 167.51-26.23 169.03-27.3 170.98-27.3L170.98-27.3Q172.83-27.3 174.16-26.18 175.48-25.05 176.18-22.95L176.18-22.95Q178.83-27.3 182.58-27.3L182.58-27.3Z" fill="#24005d" data-fill-palette-color="primary"></path></g></svg></g></svg></g><g transform="matrix(1,0,0,1,0,107.38533192148586)"><svg viewBox="0 0 319.38239999999996 44.67380633033863" height="44.67380633033863" width="319.38239999999996"><g transform="matrix(1,0,0,1,0,0)"><svg width="319.38239999999996" viewBox="2 -39.65 361.7 50.599999999999994" height="44.67380633033863" data-palette-color="#a777ff"><path d="M17.7-35.25Q20.35-35.25 22.28-34.3 24.2-33.35 25.8-31.55L25.8-31.55 22.4-28.2Q21.3-29.3 20.15-29.85 19-30.4 17.65-30.4L17.65-30.4Q14.45-30.4 12.4-27.53 10.35-24.65 9.43-20.4 8.5-16.15 8.5-11.8L8.5-11.8Q8.5-7.95 9.73-6.15 10.95-4.35 13.2-4.35L13.2-4.35Q14.8-4.35 16.03-4.98 17.25-5.6 19.25-7.05L19.25-7.05 21.6-3.25Q17.3 0.75 12.15 0.75L12.15 0.75Q7.5 0.75 4.75-2.6 2-5.95 2-12.15L2-12.15Q2-18.05 3.73-23.33 5.45-28.6 9-31.93 12.55-35.25 17.7-35.25L17.7-35.25ZM35.65-37.7L31.25-5.85Q31.2-5.65 31.2-5.35L31.2-5.35Q31.2-4.25 32.15-4.25L32.15-4.25Q32.7-4.25 33.25-4.45L33.25-4.45 33.9-0.2Q32.2 0.7 30 0.7L30 0.7Q27.65 0.7 26.37-0.63 25.1-1.95 25.1-4.35L25.1-4.35Q25.1-4.8 25.2-5.7L25.2-5.7 29.6-37.05 35.65-37.7ZM40.6-26.45L46.65-26.45 42.95 0 36.9 0 40.6-26.45ZM44.4-32.2Q42.85-32.2 41.97-33.08 41.1-33.95 41.1-35.45L41.1-35.45Q41.1-37.35 42.27-38.5 43.45-39.65 45.2-39.65L45.2-39.65Q46.75-39.65 47.62-38.78 48.5-37.9 48.5-36.4L48.5-36.4Q48.5-34.55 47.3-33.38 46.1-32.2 44.4-32.2L44.4-32.2ZM61.74-27.15Q63.94-27.15 65.62-26.4 67.29-25.65 68.69-24.1L68.69-24.1 65.64-20.7Q64.64-21.55 63.79-21.95 62.94-22.35 61.84-22.35L61.84-22.35Q58.49-22.35 56.92-18.32 55.34-14.3 55.34-9.3L55.34-9.3Q55.34-6.6 56.19-5.4 57.04-4.2 58.64-4.2L58.64-4.2Q59.74-4.2 60.72-4.63 61.69-5.05 63.04-5.95L63.04-5.95 65.24-2.15Q61.64 0.75 57.74 0.75L57.74 0.75Q53.69 0.75 51.37-1.98 49.04-4.7 49.04-9.5L49.04-9.5Q49.04-14.05 50.49-18.07 51.94-22.1 54.79-24.63 57.64-27.15 61.74-27.15L61.74-27.15ZM79.64-37.7L77.54-22.6Q79.14-24.9 80.92-26.03 82.69-27.15 84.89-27.15L84.89-27.15Q87.54-27.15 89.14-25.55 90.74-23.95 90.74-21.3L90.74-21.3Q90.74-18.3 89.12-16.03 87.49-13.75 84.09-11.95L84.09-11.95 88.09 0 81.74 0 77.89-12.85Q81.54-14.15 83.07-15.95 84.59-17.75 84.59-20.35L84.59-20.35Q84.59-22.7 82.69-22.7L82.69-22.7Q81.29-22.7 79.72-21.08 78.14-19.45 76.59-16.25L76.59-16.25 74.39 0 68.34 0 73.54-37.05 79.64-37.7ZM94.44 0.75Q92.89 0.75 91.96-0.23 91.04-1.2 91.04-2.7L91.04-2.7Q91.04-4.5 92.24-5.78 93.44-7.05 95.19-7.05L95.19-7.05Q96.79-7.05 97.69-6.08 98.59-5.1 98.59-3.6L98.59-3.6Q98.59-1.8 97.41-0.53 96.24 0.75 94.44 0.75L94.44 0.75ZM141.93-34.55L147.88-34.55 138.23 0 130.08 0 130.23-27.95 122.68 0 114.58 0 114.68-34.55 120.78-34.55 119.78-5.15 127.98-34.55 134.58-34.55 134.38-5.15 141.93-34.55ZM160.43-27.15Q164.58-27.15 168.58-24.95L168.58-24.95 165.98-6.8Q165.83-5.9 165.83-5.25L165.83-5.25Q165.83-4.6 166.08-4.17 166.33-3.75 166.93-3.45L166.93-3.45 165.03 0.65Q161.03 0.15 160.33-3.25L160.33-3.25Q158.88-1.3 157.36-0.28 155.83 0.75 153.78 0.75L153.78 0.75Q150.53 0.75 148.71-1.75 146.88-4.25 146.88-8.5L146.88-8.5Q146.88-13.15 148.28-17.4 149.68-21.65 152.73-24.4 155.78-27.15 160.43-27.15L160.43-27.15ZM160.08-22.65Q157.73-22.65 156.16-20.55 154.58-18.45 153.81-15.18 153.03-11.9 153.03-8.4L153.03-8.4Q153.03-6 153.68-4.95 154.33-3.9 155.63-3.9L155.63-3.9Q156.83-3.9 157.86-4.88 158.88-5.85 160.13-7.75L160.13-7.75 162.13-22.25Q161.18-22.65 160.08-22.65L160.08-22.65ZM180.33-22L178.18-6.8Q178.13-6.55 178.13-6.1L178.13-6.1Q178.13-4.2 179.88-4.2L179.88-4.2Q180.48-4.2 181.03-4.4 181.58-4.6 182.43-5.05L182.43-5.05 183.93-1.1Q181.33 0.75 178.18 0.75L178.18 0.75Q175.28 0.75 173.68-0.9 172.08-2.55 172.08-5.45L172.08-5.45Q172.08-5.9 172.18-7L172.18-7 174.28-22 171.08-22 171.73-26.45 175.13-26.45 176.63-32.45 181.88-33.05 180.93-26.45 185.88-26.45 184.53-22 180.33-22ZM199.53-27.15Q201.73-27.15 203.4-26.4 205.08-25.65 206.48-24.1L206.48-24.1 203.43-20.7Q202.43-21.55 201.58-21.95 200.73-22.35 199.63-22.35L199.63-22.35Q196.28-22.35 194.7-18.32 193.13-14.3 193.13-9.3L193.13-9.3Q193.13-6.6 193.98-5.4 194.83-4.2 196.43-4.2L196.43-4.2Q197.53-4.2 198.5-4.63 199.48-5.05 200.83-5.95L200.83-5.95 203.03-2.15Q199.43 0.75 195.53 0.75L195.53 0.75Q191.48 0.75 189.15-1.98 186.83-4.7 186.83-9.5L186.83-9.5Q186.83-14.05 188.28-18.07 189.73-22.1 192.58-24.63 195.43-27.15 199.53-27.15L199.53-27.15ZM221.97-27.2Q224.32-27.2 225.75-25.55 227.17-23.9 227.17-21.05L227.17-21.05Q227.17-20.2 227.02-19.3L227.02-19.3 224.27 0 218.22 0 220.82-18.6Q220.92-19.4 220.92-19.7L220.92-19.7Q220.92-21.85 219.42-21.85L219.42-21.85Q217.32-21.85 214.27-15.7L214.27-15.7 212.17 0 206.12 0 211.32-37 217.42-37.6 215.27-22.35Q218.12-27.2 221.97-27.2L221.97-27.2ZM232.27 0.75Q230.72 0.75 229.8-0.23 228.87-1.2 228.87-2.7L228.87-2.7Q228.87-4.5 230.07-5.78 231.27-7.05 233.02-7.05L233.02-7.05Q234.62-7.05 235.52-6.08 236.42-5.1 236.42-3.6L236.42-3.6Q236.42-1.8 235.25-0.53 234.07 0.75 232.27 0.75L232.27 0.75ZM266.62-18.25Q272.62-16.85 272.62-11.5L272.62-11.5Q272.62-6.3 269.14-3.15 265.67 0 258.92 0L258.92 0 249.92 0 254.82-34.55 263.72-34.55Q268.52-34.55 271.27-32.52 274.02-30.5 274.02-26.9L274.02-26.9Q274.02-23.45 271.99-21.28 269.97-19.1 266.62-18.25L266.62-18.25ZM263.67-29.85L260.42-29.85 259.07-20.3 261.87-20.3Q264.72-20.3 266.17-21.88 267.62-23.45 267.62-26.4L267.62-26.4Q267.62-29.85 263.67-29.85L263.67-29.85ZM259.62-4.8Q263.22-4.8 264.72-6.7 266.22-8.6 266.22-11.65L266.22-11.65Q266.22-13.85 265.12-14.83 264.02-15.8 261.67-15.8L261.67-15.8 258.42-15.8 256.87-4.8 259.62-4.8ZM278.91-26.45L284.96-26.45 281.26 0 275.21 0 278.91-26.45ZM282.71-32.2Q281.16-32.2 280.29-33.08 279.41-33.95 279.41-35.45L279.41-35.45Q279.41-37.35 280.59-38.5 281.76-39.65 283.51-39.65L283.51-39.65Q285.06-39.65 285.94-38.78 286.81-37.9 286.81-36.4L286.81-36.4Q286.81-34.55 285.61-33.38 284.41-32.2 282.71-32.2L282.71-32.2ZM302.76-27.2Q305.11-27.2 306.54-25.55 307.96-23.9 307.96-21.05L307.96-21.05Q307.96-20.2 307.81-19.3L307.81-19.3 305.06 0 299.01 0 301.61-18.6Q301.71-19.4 301.71-19.7L301.71-19.7Q301.71-21.85 300.21-21.85L300.21-21.85Q298.11-21.85 295.06-15.7L295.06-15.7 292.91 0 286.86 0 290.56-26.45 295.81-26.45 295.56-22.05Q297.16-24.5 298.89-25.85 300.61-27.2 302.76-27.2L302.76-27.2ZM324.46-27.15Q328.61-27.15 332.61-24.95L332.61-24.95 329.21-0.65Q328.31 5.4 325.51 8.18 322.71 10.95 317.81 10.95L317.81 10.95Q315.61 10.95 313.51 10.25 311.41 9.55 309.71 8.3L309.71 8.3 311.96 4.2Q314.96 6.05 317.66 6.05L317.66 6.05Q319.86 6.05 321.31 4.75 322.76 3.45 323.26-0.05L323.26-0.05 323.71-3.45Q322.41-1.75 321.06-0.88 319.71 0 317.76 0L317.76 0Q314.56 0 312.76-2.45 310.96-4.9 310.96-9.05L310.96-9.05Q310.96-13.6 312.36-17.73 313.76-21.85 316.78-24.5 319.81-27.15 324.46-27.15L324.46-27.15ZM324.11-22.65Q321.76-22.65 320.18-20.63 318.61-18.6 317.83-15.45 317.06-12.3 317.06-8.95L317.06-8.95Q317.06-6.7 317.71-5.68 318.36-4.65 319.66-4.65L319.66-4.65Q320.86-4.65 321.96-5.65 323.06-6.65 324.26-8.45L324.26-8.45 326.16-22.25Q325.21-22.65 324.11-22.65L324.11-22.65ZM347.95-27.15Q351.56-27.15 353.58-25.25 355.61-23.35 355.61-20.4L355.61-20.4Q355.61-15.3 351.63-12.93 347.66-10.55 341.06-9.75L341.06-9.75 341.06-9.05Q341.06-6.4 341.98-5.23 342.91-4.05 344.66-4.05L344.66-4.05Q346.11-4.05 347.38-4.6 348.66-5.15 350.31-6.35L350.31-6.35 352.5-2.65Q348.45 0.75 343.81 0.75L343.81 0.75Q339.66 0.75 337.31-1.83 334.95-4.4 334.95-9.15L334.95-9.15Q334.95-13.75 336.36-17.88 337.75-22 340.7-24.58 343.66-27.15 347.95-27.15L347.95-27.15ZM341.45-13.8Q345.66-14.3 347.66-15.9 349.66-17.5 349.66-20.25L349.66-20.25Q349.66-22.8 347.36-22.8L347.36-22.8Q344.95-22.8 343.5-20.23 342.06-17.65 341.45-13.8L341.45-13.8ZM359.55 0.75Q358 0.75 357.08-0.23 356.15-1.2 356.15-2.7L356.15-2.7Q356.15-4.5 357.35-5.78 358.55-7.05 360.3-7.05L360.3-7.05Q361.9-7.05 362.8-6.08 363.7-5.1 363.7-3.6L363.7-3.6Q363.7-1.8 362.53-0.53 361.35 0.75 359.55 0.75L359.55 0.75Z" opacity="1" transform="matrix(1,0,0,1,0,0)" fill="#a777ff" class="slogan-text-1" data-fill-palette-color="secondary" id="text-1"></path></svg></g></svg></g></svg></g></svg></g><g transform="matrix(1,0,0,1,0,0.3801478456295513)"><svg viewBox="0 0 148.9823750968017 152.0591382518245" height="152.0591382518245" width="148.9823750968017"><g><svg xmlns="http://www.w3.org/2000/svg" data-name="Layer 1" viewBox="2.389921763537621 1.393370166192859 95.2201564914534 97.18662983380715" x="0" y="0" height="152.0591382518245" width="148.9823750968017" class="icon-icon-0" data-fill-palette-color="accent" id="icon-0"><path d="M87.37 20.12H64.9A17.49 17.49 0 0 0 61 15.56L69.56 7A3.25 3.25 0 0 0 65 2.37l-10 10a17.17 17.17 0 0 0-9.88 0l-10-10A3.25 3.25 0 0 0 30.44 7l8.6 8.6a17.47 17.47 0 0 0-3.95 4.56H12.63A10.24 10.24 0 0 0 2.39 30.36V83A10.24 10.24 0 0 0 12.63 93.28h8.68v3a2.3 2.3 0 0 0 2.3 2.3h6.81a2.3 2.3 0 0 0 2.3-2.3v-3H67.29v3a2.3 2.3 0 0 0 2.3 2.3H76.4a2.3 2.3 0 0 0 2.3-2.3v-3h8.68A10.24 10.24 0 0 0 97.61 83V30.36A10.24 10.24 0 0 0 87.37 20.12ZM71.92 75.67a5.49 5.49 0 0 1-5.49 5.49H19.33a5.49 5.49 0 0 1-5.49-5.49v-38a5.49 5.49 0 0 1 5.49-5.49H66.44a5.49 5.49 0 0 1 5.49 5.49ZM84.24 70a3.47 3.47 0 1 1 3.47-3.47A3.47 3.47 0 0 1 84.24 70Zm0-9.86a3.47 3.47 0 1 1 3.47-3.47A3.47 3.47 0 0 1 84.24 60.13Zm0-9.86a3.47 3.47 0 1 1 3.47-3.47A3.47 3.47 0 0 1 84.24 50.26Zm-41.45 22c-10 0-15.37-9.55-13.7-10s4.57 2.28 13.7 2.28 12-2.7 13.7-2.28S52.77 72.22 42.8 72.22ZM26.92 57a2.7 2.7 0 0 1 0-3.81l2.62-2.62-2.62-2.62a2.7 2.7 0 0 1 3.81-3.81l2.62 2.62L36 44.11a2.7 2.7 0 1 1 3.81 3.81l-2.62 2.62 2.62 2.62A2.7 2.7 0 1 1 36 57l-2.62-2.62L30.73 57A2.7 2.7 0 0 1 26.92 57Zm31.94-9.05l-2.62 2.62 2.62 2.62A2.7 2.7 0 1 1 55 57l-2.62-2.62L49.8 57A2.7 2.7 0 1 1 46 53.16l2.62-2.62L46 47.92a2.7 2.7 0 1 1 3.81-3.81l2.62 2.62L55 44.11a2.7 2.7 0 0 1 3.81 3.81Z" fill="#000538" data-fill-palette-color="accent"></path></svg></g></svg></g></svg></g><defs></defs></svg><rect width="395.52" height="101.86663920676696" fill="none" stroke="none" visibility="hidden"></rect></g></svg></g></svg>